<svg width="13" height="21" viewBox="0 0 13 21" fill="none" xmlns="http://www.w3.org/2000/svg">
<path opacity="0.7" d="M12.5583 11.6156C12.8107 11.3531 13 10.9594 13 10.5C13 10.1062 12.8107 9.7125 12.5583 9.38437L3.97573 0.459375C3.66019 0.196875 3.28155 0 2.90291 0C2.46116 0 2.08252 0.196875 1.8301 0.459375L0.441748 1.96875C0.126214 2.29688 0 2.69062 0 3.08437C0 3.54375 0.126214 3.9375 0.441748 4.2L6.5 10.5L0.441748 16.8C0.126214 17.1281 0 17.5219 0 17.9156C0 18.375 0.126214 18.7687 0.441748 19.0312L1.8301 20.5406C2.08252 20.8687 2.46116 21 2.90291 21C3.28155 21 3.66019 20.8687 3.97573 20.5406L12.5583 11.6156Z" fill="#0D253C"/>
</svg>
