<svg width="36" height="35" viewBox="0 0 36 35" fill="none" xmlns="http://www.w3.org/2000/svg">
<path d="M30.5 11.7496H23V5.49956C23.1259 4.29946 22.77 3.09849 22.0105 2.16082C21.251 1.22314 20.1501 0.625575 18.95 0.499562C18.6344 0.46206 18.3156 0.46206 18 0.499562H16.0375C15.6197 0.511009 15.2175 0.660825 14.894 0.925509C14.5705 1.19019 14.344 1.55477 14.25 1.96206V2.11206L13 10.0371L8.575 16.7496H0.5V34.2496H24.25C33.55 34.2496 35.5 28.8121 35.5 24.2496V16.7496C35.6259 15.5495 35.27 14.3485 34.5105 13.4108C33.751 12.4731 32.6501 11.8756 31.45 11.7496C31.1344 11.7121 30.8156 11.7121 30.5 11.7496ZM8 31.7496H3V19.2496H8V31.7496ZM33 24.2496C33 29.3621 30.225 31.7496 24.25 31.7496H10.5V18.3746L15.5 10.9621L16.4125 4.24956L16.5875 2.99956H18C19.8 2.99956 20.5 3.69956 20.5 5.49956V14.2496H30.5C32.3 14.2496 33 14.9496 33 16.7496V24.2496Z" fill="#2D4379"/>
</svg>
