<svg width="16" height="16" viewBox="0 0 16 16" fill="none" xmlns="http://www.w3.org/2000/svg">
<path d="M13.7045 5.34222H10.2784V2.38172C10.3359 1.81326 10.1733 1.24438 9.82639 0.800224C9.47943 0.356068 8.97652 0.0730125 8.4283 0.0133228C8.28415 -0.00444094 8.13847 -0.00444094 7.99432 0.0133228H7.09782C6.90694 0.0187452 6.72321 0.0897098 6.57542 0.215085C6.42764 0.340461 6.32417 0.513155 6.28125 0.706079V0.777131L5.71023 4.53104L3.68881 7.71061H0V16H10.8494C15.0978 16 15.9886 13.4244 15.9886 11.2632V7.71061C16.0462 7.14215 15.8836 6.57327 15.5366 6.12912C15.1897 5.68496 14.6868 5.4019 14.1385 5.34222C13.9944 5.32445 13.8487 5.32445 13.7045 5.34222ZM3.42614 14.8158H1.14205V8.89481H3.42614V14.8158ZM14.8466 11.2632C14.8466 13.6849 13.5789 14.8158 10.8494 14.8158H4.56818V8.48034L6.85227 4.96919L7.26912 1.78962L7.34906 1.19752H7.99432C8.81659 1.19752 9.13637 1.5291 9.13637 2.38172V6.52641H13.7045C14.5268 6.52641 14.8466 6.85799 14.8466 7.71061V11.2632Z" fill="#2D4379"/>
</svg>
