<svg width="199" height="32" viewBox="0 0 199 32" fill="none" xmlns="http://www.w3.org/2000/svg">
<path d="M26.5469 4.04688C26.2552 4.07812 25.8385 4.13542 25.2969 4.21875C24.7552 4.30208 24.2656 4.50521 23.8281 4.82812C23.4427 5.10938 23.1667 5.59375 23 6.28125C22.8438 6.95833 22.7656 7.95833 22.7656 9.28125V25.125H19.9844L6.17188 7.98438V18.3906C6.17188 19.6823 6.25521 20.6667 6.42188 21.3438C6.59896 22.0104 6.88021 22.5 7.26562 22.8125C7.54688 23.0417 7.99479 23.2448 8.60938 23.4219C9.22396 23.599 9.71354 23.7188 10.0781 23.7812V25H0.546875V23.7812C0.953125 23.75 1.41667 23.6771 1.9375 23.5625C2.46875 23.4375 2.91146 23.25 3.26562 23C3.67188 22.6979 3.94792 22.2448 4.09375 21.6406C4.25 21.026 4.32812 20 4.32812 18.5625V8.0625C4.32812 7.54167 4.24479 7.05208 4.07812 6.59375C3.92188 6.125 3.67188 5.72396 3.32812 5.39062C2.96354 5.03646 2.54167 4.76042 2.0625 4.5625C1.59375 4.35417 1.05729 4.19271 0.453125 4.07812V2.82812H8.79688L20.9219 17.8281V9.4375C20.9219 8.10417 20.8333 7.11458 20.6562 6.46875C20.4792 5.8125 20.1979 5.32812 19.8125 5.01562C19.5104 4.77604 19.0625 4.57292 18.4688 4.40625C17.875 4.22917 17.3958 4.10938 17.0312 4.04688V2.82812H26.5469V4.04688ZM44.5781 21.2656C44.2135 21.8594 43.7708 22.4219 43.25 22.9531C42.7396 23.474 42.1562 23.9219 41.5 24.2969C40.8021 24.6927 40.0938 24.9896 39.375 25.1875C38.6667 25.3958 37.849 25.5 36.9219 25.5C35.3802 25.5 34.0469 25.2812 32.9219 24.8438C31.8073 24.4062 30.8854 23.8177 30.1562 23.0781C29.4271 22.3385 28.8802 21.4688 28.5156 20.4688C28.1615 19.4583 27.9844 18.3646 27.9844 17.1875C27.9844 16.125 28.1771 15.1094 28.5625 14.1406C28.9583 13.1615 29.5156 12.2917 30.2344 11.5312C30.9427 10.7917 31.8333 10.1927 32.9062 9.73438C33.9896 9.27604 35.1979 9.04688 36.5312 9.04688C37.9896 9.04688 39.1875 9.22396 40.125 9.57812C41.0625 9.93229 41.8385 10.4219 42.4531 11.0469C43.0469 11.6406 43.4792 12.3438 43.75 13.1562C44.0208 13.9583 44.1562 14.8021 44.1562 15.6875V16.7031H33.5938C33.5938 18.8385 34.0052 20.4635 34.8281 21.5781C35.651 22.6927 36.9583 23.25 38.75 23.25C39.7292 23.25 40.6094 22.9844 41.3906 22.4531C42.1719 21.9115 42.8385 21.2292 43.3906 20.4062L44.5781 21.2656ZM38.6094 15.3281C38.6094 14.7031 38.5781 14.0625 38.5156 13.4062C38.4531 12.75 38.3438 12.2135 38.1875 11.7969C38.0104 11.3073 37.7656 10.9375 37.4531 10.6875C37.151 10.4375 36.7656 10.3125 36.2969 10.3125C35.4948 10.3125 34.8542 10.7188 34.375 11.5312C33.8958 12.3438 33.6354 13.6302 33.5938 15.3906L38.6094 15.3281ZM73.0312 10.6406C72.5521 10.7135 72.1094 10.875 71.7031 11.125C71.2969 11.3646 70.9531 11.8177 70.6719 12.4844C69.9427 14.2656 69.3594 15.7031 68.9219 16.7969C68.4844 17.8906 67.8698 19.4688 67.0781 21.5312C66.9115 21.9583 66.7083 22.5469 66.4688 23.2969C66.2396 24.0469 66.0573 24.6615 65.9219 25.1406H62.875L58.9375 14.5156L55.25 25.1406H52.2344C51.1823 22.2969 50.3542 20.0938 49.75 18.5312C49.1458 16.9583 48.3385 14.8854 47.3281 12.3125C47.1406 11.8229 46.8177 11.4375 46.3594 11.1562C45.9115 10.875 45.4479 10.7031 44.9688 10.6406V9.5H54.5625V10.6406C54.2083 10.6719 53.7865 10.7552 53.2969 10.8906C52.8073 11.026 52.5625 11.2083 52.5625 11.4375C52.5625 11.5417 52.5729 11.6354 52.5938 11.7188C52.625 11.7917 52.6719 11.9323 52.7344 12.1406C53.0156 12.9531 53.401 14.0052 53.8906 15.2969C54.3802 16.5781 54.9531 18.0729 55.6094 19.7812L59.0781 9.5H62.1719L66.125 20.125C66.7292 18.5208 67.1927 17.2604 67.5156 16.3438C67.849 15.4167 68.2656 14.224 68.7656 12.7656C68.8385 12.5469 68.8802 12.3542 68.8906 12.1875C68.9115 12.0104 68.9167 11.8958 68.9062 11.8438C68.9062 11.6562 68.8125 11.4896 68.625 11.3438C68.4375 11.1875 68.2135 11.0625 67.9531 10.9688C67.6927 10.875 67.4375 10.8021 67.1875 10.75C66.9479 10.6979 66.7448 10.6615 66.5781 10.6406V9.5H73.0312V10.6406ZM80.9531 25.5312C79.9427 25.5312 78.9531 25.3802 77.9844 25.0781C77.026 24.7865 76.2812 24.474 75.75 24.1406L75.2812 25.2031H74.0625L73.8594 19.375H75C75.1562 19.8438 75.4167 20.375 75.7812 20.9688C76.1458 21.5521 76.5625 22.0781 77.0312 22.5469C77.5208 23.0156 78.0781 23.4115 78.7031 23.7344C79.3385 24.0573 80.0156 24.2188 80.7344 24.2188C81.6823 24.2188 82.3854 24.0365 82.8438 23.6719C83.3125 23.2969 83.5469 22.724 83.5469 21.9531C83.5469 21.5365 83.4427 21.1927 83.2344 20.9219C83.026 20.651 82.7396 20.4167 82.375 20.2188C81.9688 20.0104 81.5208 19.8333 81.0312 19.6875C80.5521 19.5417 79.9583 19.3646 79.25 19.1562C78.5417 18.9479 77.9323 18.7396 77.4219 18.5312C76.9219 18.3125 76.401 17.974 75.8594 17.5156C75.3906 17.1094 75.0156 16.6198 74.7344 16.0469C74.4531 15.474 74.3125 14.7917 74.3125 14C74.3125 12.5312 74.9271 11.3438 76.1562 10.4375C77.3958 9.53125 79.0156 9.07812 81.0156 9.07812C81.9635 9.07812 82.8333 9.17708 83.625 9.375C84.4271 9.5625 85.099 9.77083 85.6406 10L85.9688 9.07812H87.1562L87.4062 14.4062H86.2969C85.9323 13.3229 85.3073 12.3906 84.4219 11.6094C83.5365 10.8177 82.5833 10.4219 81.5625 10.4219C80.7604 10.4219 80.1302 10.5885 79.6719 10.9219C79.2135 11.2552 78.9844 11.7188 78.9844 12.3125C78.9844 13.1042 79.3177 13.6771 79.9844 14.0312C80.6615 14.3854 81.6042 14.7188 82.8125 15.0312C84.6771 15.5104 86.0417 16.1667 86.9062 17C87.7708 17.8229 88.2031 18.875 88.2031 20.1562C88.2031 21.8646 87.5312 23.1875 86.1875 24.125C84.8542 25.0625 83.1094 25.5312 80.9531 25.5312ZM119.031 9.17188H117.828C117.505 8.22396 116.984 7.20833 116.266 6.125C115.557 5.04167 114.901 4.45833 114.297 4.375C113.964 4.33333 113.552 4.29688 113.062 4.26562C112.573 4.23438 112.151 4.21875 111.797 4.21875H111.062V21.6094C111.062 21.9844 111.13 22.3177 111.266 22.6094C111.401 22.8906 111.667 23.1146 112.062 23.2812C112.302 23.375 112.672 23.474 113.172 23.5781C113.682 23.6719 114.115 23.7396 114.469 23.7812V25H102.109V23.7812C102.411 23.75 102.833 23.7083 103.375 23.6562C103.927 23.5938 104.302 23.5208 104.5 23.4375C104.906 23.2708 105.177 23.0469 105.312 22.7656C105.448 22.4844 105.516 22.151 105.516 21.7656V4.21875H104.781C104.427 4.21875 104.005 4.23438 103.516 4.26562C103.026 4.29688 102.615 4.33333 102.281 4.375C101.677 4.45833 101.016 5.04167 100.297 6.125C99.5885 7.20833 99.0729 8.22396 98.75 9.17188H97.5469V2.82812H119.031V9.17188ZM136.109 11.3438C136.88 12.0625 137.469 12.9219 137.875 13.9219C138.281 14.9219 138.484 16.0052 138.484 17.1719C138.484 18.3281 138.281 19.4219 137.875 20.4531C137.479 21.474 136.896 22.349 136.125 23.0781C135.302 23.8594 134.318 24.4583 133.172 24.875C132.036 25.2917 130.734 25.5 129.266 25.5C127.995 25.5 126.823 25.3177 125.75 24.9531C124.688 24.5885 123.745 24.0417 122.922 23.3125C122.13 22.6146 121.505 21.7552 121.047 20.7344C120.589 19.7031 120.359 18.5521 120.359 17.2812C120.359 16.0312 120.557 14.9219 120.953 13.9531C121.359 12.974 121.964 12.1042 122.766 11.3438C123.536 10.6146 124.484 10.0521 125.609 9.65625C126.745 9.25 128.01 9.04688 129.406 9.04688C130.865 9.04688 132.146 9.25 133.25 9.65625C134.365 10.0521 135.318 10.6146 136.109 11.3438ZM132.109 22.1719C132.339 21.5885 132.505 20.8802 132.609 20.0469C132.724 19.2135 132.781 18.2448 132.781 17.1406C132.781 16.4115 132.729 15.5781 132.625 14.6406C132.521 13.7031 132.365 12.9635 132.156 12.4219C131.906 11.7656 131.557 11.25 131.109 10.875C130.672 10.5 130.115 10.3125 129.438 10.3125C128.698 10.3125 128.104 10.5156 127.656 10.9219C127.219 11.3281 126.88 11.8542 126.641 12.5C126.422 13.0938 126.271 13.7917 126.188 14.5938C126.104 15.3854 126.062 16.2135 126.062 17.0781C126.062 18.2135 126.099 19.1562 126.172 19.9062C126.245 20.6458 126.422 21.3906 126.703 22.1406C126.943 22.7865 127.286 23.2969 127.734 23.6719C128.182 24.0469 128.75 24.2344 129.438 24.2344C130.062 24.2344 130.599 24.0625 131.047 23.7188C131.495 23.3646 131.849 22.849 132.109 22.1719ZM160.703 24.6719L153 25.125L152.766 24.9062V23.4688L152.656 23.4375C152.146 23.9896 151.453 24.474 150.578 24.8906C149.714 25.2969 148.839 25.5 147.953 25.5C145.849 25.5 144.115 24.7188 142.75 23.1562C141.385 21.5938 140.703 19.5729 140.703 17.0938C140.703 14.8958 141.464 13.0104 142.984 11.4375C144.516 9.86458 146.365 9.07812 148.531 9.07812C149.385 9.07812 150.188 9.17708 150.938 9.375C151.688 9.5625 152.286 9.78646 152.734 10.0469V4.9375C152.734 4.55208 152.656 4.19271 152.5 3.85938C152.344 3.51562 152.135 3.25 151.875 3.0625C151.552 2.83333 151.146 2.67188 150.656 2.57812C150.177 2.47396 149.693 2.40104 149.203 2.35938V1.21875L157.641 0.8125L157.875 1.0625V21.5469C157.875 21.9427 157.938 22.276 158.062 22.5469C158.198 22.8177 158.411 23.0312 158.703 23.1875C158.922 23.3021 159.24 23.3854 159.656 23.4375C160.083 23.4896 160.432 23.5208 160.703 23.5312V24.6719ZM152.734 21.8906V13.0625C152.661 12.8229 152.557 12.5573 152.422 12.2656C152.297 11.974 152.12 11.6979 151.891 11.4375C151.682 11.2188 151.401 11.026 151.047 10.8594C150.703 10.6927 150.312 10.6094 149.875 10.6094C148.833 10.6094 147.979 11.1979 147.312 12.375C146.646 13.5521 146.312 15.2135 146.312 17.3594C146.312 18.2031 146.37 18.9635 146.484 19.6406C146.609 20.3073 146.823 20.9167 147.125 21.4688C147.427 22.0208 147.812 22.4531 148.281 22.7656C148.76 23.0781 149.333 23.2344 150 23.2344C150.635 23.2344 151.161 23.1146 151.578 22.875C151.995 22.625 152.38 22.2969 152.734 21.8906ZM179.578 24.6719C179.12 24.8698 178.578 25.0521 177.953 25.2188C177.328 25.3854 176.667 25.4688 175.969 25.4688C174.688 25.4688 173.745 25.2812 173.141 24.9062C172.536 24.5208 172.125 23.974 171.906 23.2656H171.812C171.458 23.6198 171.115 23.9219 170.781 24.1719C170.458 24.4219 170.109 24.6354 169.734 24.8125C169.245 25.0417 168.771 25.2083 168.312 25.3125C167.865 25.4271 167.234 25.4844 166.422 25.4844C165.214 25.4844 164.182 25.1302 163.328 24.4219C162.474 23.7031 162.047 22.7552 162.047 21.5781C162.047 20.901 162.141 20.3281 162.328 19.8594C162.516 19.3802 162.781 18.9583 163.125 18.5938C163.438 18.2604 163.797 17.9844 164.203 17.7656C164.62 17.5469 165.073 17.3438 165.562 17.1562C166.5 16.8125 167.625 16.4583 168.938 16.0938C170.25 15.7188 171.208 15.3854 171.812 15.0938V13.5938C171.812 13.3333 171.792 12.9896 171.75 12.5625C171.708 12.1354 171.62 11.776 171.484 11.4844C171.339 11.151 171.109 10.8698 170.797 10.6406C170.484 10.4115 170.073 10.2969 169.562 10.2969C169.104 10.2969 168.719 10.3646 168.406 10.5C168.104 10.625 167.859 10.7552 167.672 10.8906C167.703 11.099 167.792 11.4167 167.938 11.8438C168.083 12.2708 168.156 12.6823 168.156 13.0781C168.156 13.2552 168.109 13.4792 168.016 13.75C167.922 14.0104 167.786 14.2188 167.609 14.375C167.37 14.5833 167.099 14.7448 166.797 14.8594C166.505 14.974 166.052 15.0312 165.438 15.0312C164.562 15.0312 163.901 14.8229 163.453 14.4062C163.005 13.9792 162.781 13.4271 162.781 12.75C162.781 12.1667 163.01 11.6458 163.469 11.1875C163.938 10.7188 164.505 10.3333 165.172 10.0312C165.828 9.71875 166.583 9.47917 167.438 9.3125C168.292 9.13542 169.083 9.04688 169.812 9.04688C170.823 9.04688 171.75 9.10938 172.594 9.23438C173.438 9.34896 174.198 9.59375 174.875 9.96875C175.521 10.3333 176.031 10.8646 176.406 11.5625C176.792 12.25 176.984 13.151 176.984 14.2656C176.984 15.4427 176.958 16.8385 176.906 18.4531C176.865 20.0677 176.844 21.1302 176.844 21.6406C176.844 22.1094 176.911 22.4792 177.047 22.75C177.193 23.0208 177.411 23.224 177.703 23.3594C177.88 23.4427 178.156 23.4948 178.531 23.5156C178.917 23.526 179.266 23.5312 179.578 23.5312V24.6719ZM171.812 16.5312C171.229 16.7292 170.651 16.9583 170.078 17.2188C169.505 17.4688 169.036 17.7344 168.672 18.0156C168.286 18.3073 167.984 18.6823 167.766 19.1406C167.547 19.5885 167.438 20.1198 167.438 20.7344C167.438 21.5469 167.62 22.1354 167.984 22.5C168.359 22.8646 168.818 23.0469 169.359 23.0469C169.932 23.0469 170.401 22.9323 170.766 22.7031C171.141 22.4635 171.469 22.1719 171.75 21.8281L171.812 16.5312ZM198.438 10.6406C197.969 10.7135 197.51 10.8906 197.062 11.1719C196.625 11.4531 196.26 11.8906 195.969 12.4844C195.073 14.3802 194.151 16.401 193.203 18.5469C192.255 20.6823 191.203 22.9948 190.047 25.4844C189.401 26.8802 188.776 27.9948 188.172 28.8281C187.568 29.6615 187 30.3021 186.469 30.75C185.969 31.1667 185.474 31.4688 184.984 31.6562C184.495 31.8438 184 31.9375 183.5 31.9375C182.51 31.9375 181.708 31.6615 181.094 31.1094C180.49 30.5573 180.188 29.9375 180.188 29.25C180.188 28.9583 180.219 28.6875 180.281 28.4375C180.354 28.1875 180.5 27.9271 180.719 27.6562C180.885 27.4271 181.141 27.2292 181.484 27.0625C181.839 26.9062 182.234 26.8281 182.672 26.8281C183.255 26.8281 183.812 27.0312 184.344 27.4375C184.875 27.8438 185.427 28.4062 186 29.125C186.344 28.7812 186.766 28.2656 187.266 27.5781C187.776 26.901 188.151 26.2031 188.391 25.4844C187.151 22.8802 186.052 20.625 185.094 18.7188C184.135 16.8021 183.062 14.6667 181.875 12.3125C181.615 11.8125 181.266 11.4271 180.828 11.1562C180.391 10.875 179.927 10.7031 179.438 10.6406V9.5H189V10.6406C188.646 10.651 188.234 10.7292 187.766 10.875C187.307 11.0208 187.078 11.2083 187.078 11.4375C187.078 11.5208 187.094 11.6146 187.125 11.7188C187.156 11.8125 187.214 11.9531 187.297 12.1406C187.651 12.8698 188.151 13.8854 188.797 15.1875C189.453 16.4792 190.214 17.9948 191.078 19.7344C191.724 18.2552 192.271 16.9844 192.719 15.9219C193.177 14.849 193.62 13.7969 194.047 12.7656C194.151 12.5052 194.208 12.3021 194.219 12.1562C194.24 12 194.25 11.8958 194.25 11.8438C194.25 11.6562 194.156 11.4948 193.969 11.3594C193.792 11.2135 193.578 11.0885 193.328 10.9844C193.068 10.8802 192.818 10.8021 192.578 10.75C192.339 10.6979 192.141 10.6615 191.984 10.6406V9.5H198.438V10.6406Z" fill="#0D253C"/>
</svg>
