<svg width="41" height="38" viewBox="0 0 41 38" fill="none" xmlns="http://www.w3.org/2000/svg">
<path d="M11 20.1877V20.1875V15.4375C11 13.136 11.9859 10.9162 13.762 9.27006C15.54 7.62217 17.9628 6.6875 20.5 6.6875C23.0372 6.6875 25.46 7.62217 27.238 9.27006C29.0141 10.9162 30 13.136 30 15.4375V20.1875V20.1877C30.0001 20.7206 30.2291 21.219 30.6156 21.5771C30.6156 21.5772 30.6156 21.5772 30.6157 21.5772L33.7637 24.495C33.8147 24.5423 33.8438 24.6088 33.8438 24.6784V25.125C33.8438 25.2631 33.7318 25.375 33.5938 25.375H7.40625C7.26818 25.375 7.15625 25.2631 7.15625 25.125V24.6784C7.15625 24.6088 7.18526 24.5423 7.2363 24.495L10.3843 21.5772C10.3844 21.5772 10.3844 21.5772 10.3844 21.5771C10.7709 21.219 10.9999 20.7206 11 20.1877ZM23.5938 29.6875C23.5938 30.4142 23.2828 31.1239 22.7081 31.6565C22.1315 32.1909 21.3381 32.5 20.5 32.5C19.6619 32.5 18.8685 32.1909 18.2919 31.6565C17.7172 31.1239 17.4062 30.4142 17.4062 29.6875V29.25H23.5938V29.6875Z" stroke="#0D253C" stroke-width="1.5"/>
<ellipse cx="12.8125" cy="11.875" rx="7.6875" ry="7.125" fill="#EB4C42" stroke="#F8FAFF" stroke-width="2"/>
</svg>
