<svg width="28" height="38" viewBox="0 0 28 38" fill="none" xmlns="http://www.w3.org/2000/svg">
<path d="M25 3.37488V33.9452L15.2375 29.1211L14 28.5164L12.7625 29.1211L3 33.9452V3.37488H25ZM25 0.687378H3C2.27065 0.687378 1.57118 0.970524 1.05546 1.47453C0.539731 1.97853 0.25 2.66211 0.25 3.37488V36.7107C0.25 37.4501 1.0247 37.9338 1.68903 37.6092L14 31.5936L26.311 37.6092C26.9753 37.9338 27.75 37.4501 27.75 36.7107V3.37488C27.75 2.66211 27.4603 1.97853 26.9445 1.47453C26.4288 0.970524 25.7293 0.687378 25 0.687378Z" fill="#2D4379"/>
</svg>
